<svg id="Isolation_Mode" data-name="Isolation Mode" xmlns="http://www.w3.org/2000/svg" viewBox="0 0 42.6 65.4"><title>Artboard 1</title><path d="M37.3,21a16,16,0,1,0-16,16A16,16,0,0,0,37.3,21ZM7.8,21A13.5,13.5,0,1,1,21.3,34.5,13.57,13.57,0,0,1,7.8,21Z"/><path d="M21.3,58.1l.9-1.1c.8-1,20.4-24.3,20.4-35.7A21.3,21.3,0,0,0,0,21.3C0,32.7,19.5,56,20.4,57Zm0-55.6A18.78,18.78,0,0,1,40.1,21.3c0,9.2-14.9,28.1-18.8,33-3.9-4.9-18.8-23.8-18.8-33A18.78,18.78,0,0,1,21.3,2.5Z"/><path d="M27.3,53.3c-.6.8-1.2,1.6-1.8,2.3,9.3.5,14.3,2.7,14.3,3.6,0,1.1-6.5,3.7-18.6,3.7S2.6,60.3,2.6,59.2c0-.9,5-3.1,14.3-3.6-.6-.7-1.1-1.5-1.8-2.3-7,.6-15,2.2-15,5.9,0,4.9,13.8,6.2,21,6.2s21-1.3,21-6.2C42.3,55.5,34.3,53.9,27.3,53.3Z"/></svg>