<svg xmlns="http://www.w3.org/2000/svg" viewBox="0 0 20.67 20.67"><defs><style>.cls-1{fill:#fff;}</style></defs><title>Facebook icon</title><g id="Layer_2" data-name="Layer 2"><g id="Our_Commitments" data-name="Our Commitments"><g id="Footer"><g id="Navigate_Social_Lists" data-name="Navigate &amp; Social Lists"><path id="Facebook_Icon" data-name="Facebook Icon" class="cls-1" d="M15.93,0H4.74A4.75,4.75,0,0,0,0,4.74V15.93a4.76,4.76,0,0,0,4.74,4.74h6.47V11.31H9.39V9h1.82V7.64a4.13,4.13,0,0,1,1.18-3.16,4.68,4.68,0,0,1,3.33-1.11,6.18,6.18,0,0,1,.85.06c.29,0,.61.1.95.18l-.28,2.44L16.72,6a5.21,5.21,0,0,0-.6,0,1.6,1.6,0,0,0-1.21.44,1.78,1.78,0,0,0-.41,1.26V9h2.35v2.31H14.5v9.36h1.43a4.76,4.76,0,0,0,4.74-4.74V4.74A4.76,4.76,0,0,0,15.93,0Z"/></g></g></g></g></svg>