<?xml version="1.0" encoding="utf-8"?>
<!-- Generator: Adobe Illustrator 22.0.0, SVG Export Plug-In . SVG Version: 6.00 Build 0)  -->
<svg version="1.1" id="Layer_1" xmlns="http://www.w3.org/2000/svg" xmlns:xlink="http://www.w3.org/1999/xlink" x="0px" y="0px"
	 viewBox="0 0 180 150" style="enable-background:new 0 0 180 150;" xml:space="preserve">
<style type="text/css">
	.st0{display:none;}
	.st1{display:inline;}
	.st2{fill:#4A9E4E;}
	.st3{fill:none;stroke:#4A9E4E;stroke-width:4;stroke-linecap:round;stroke-miterlimit:10;}
	.st4{display:inline;fill:#499E4E;}
	.st5{fill:#499E4E;}
</style>
<g id="Family_Icon" class="st0">
	<g class="st1">
		<path class="st2" d="M77.5,53.6c-7.1,0-12.9-5.8-12.9-12.9s5.8-12.9,12.9-12.9c7.1,0,12.9,5.8,12.9,12.9S84.6,53.6,77.5,53.6z
			 M77.5,35.3c-3,0-5.4,2.4-5.4,5.4c0,3,2.4,5.4,5.4,5.4c3,0,5.4-2.4,5.4-5.4C82.9,37.8,80.5,35.3,77.5,35.3z"/>
	</g>
	<g class="st1">
		<path class="st2" d="M104.9,54.1c-6.1,0-11-4.9-11-11s4.9-11,11-11c6.1,0,11,4.9,11,11S110.9,54.1,104.9,54.1z M104.9,38.3
			c-2.6,0-4.8,2.1-4.8,4.8c0,2.6,2.1,4.8,4.8,4.8c2.6,0,4.8-2.1,4.8-4.8C109.6,40.5,107.5,38.3,104.9,38.3z"/>
	</g>
	<g class="st1">
		<path class="st2" d="M107.4,76.7c-5.1,0-11.2-1.6-18.2-4.8c-1.6-0.7-2.3-2.6-1.6-4.1c0.7-1.6,2.6-2.3,4.1-1.6
			c9.5,4.3,17.1,5.3,21.3,2.9c2.8-1.6,3.6-4.3,3.7-5.8c0.4-3.6-5-9.6-7.6-12c-1.3-1.1-1.4-3.1-0.3-4.4c1.1-1.3,3.1-1.4,4.4-0.3
			c1.1,1,10.6,9.6,9.7,17.4c-0.5,4.5-3,8.4-6.9,10.5C113.7,76,110.8,76.7,107.4,76.7z"/>
	</g>
	<g class="st1">
		<path class="st2" d="M93.1,68.2c-4.1,0-7.5-3.3-7.5-7.5s3.3-7.5,7.5-7.5s7.5,3.3,7.5,7.5S97.2,68.2,93.1,68.2z M93.1,57.1
			c-2,0-3.7,1.7-3.7,3.7c0,2,1.7,3.7,3.7,3.7s3.7-1.7,3.7-3.7C96.8,58.7,95.1,57.1,93.1,57.1z"/>
	</g>
	<g class="st1">
		<path class="st2" d="M111.1,65.9c-0.6,0-1.2-0.3-1.5-0.8c-4.2-6.1-9.3-4.4-9.4-4.4c-1,0.3-2-0.2-2.4-1.2c-0.3-1,0.2-2,1.2-2.4
			c0.3-0.1,7.9-2.6,13.7,5.9c0.6,0.9,0.4,2-0.5,2.6C111.8,65.8,111.4,65.9,111.1,65.9z"/>
	</g>
	<g class="st1">
		<path class="st2" d="M70.5,85.3c-5.6,0-10.2-4.6-10.2-10.2s4.6-10.2,10.2-10.2s10.2,4.6,10.2,10.2S76.2,85.3,70.5,85.3z
			 M70.5,69.8c-2.9,0-5.2,2.3-5.2,5.2c0,2.9,2.3,5.2,5.2,5.2s5.2-2.3,5.2-5.2C75.8,72.2,73.4,69.8,70.5,69.8z"/>
	</g>
	<g class="st1">
		<path class="st2" d="M98.7,94.8c-4.9,0-9-4-9.1-8.9c-0.1-5,3.9-9.2,8.9-9.3c5-0.1,9.2,3.9,9.3,8.9v0c0.1,2.4-0.8,4.7-2.5,6.5
			c-1.7,1.8-3.9,2.8-6.4,2.8C98.8,94.8,98.8,94.8,98.7,94.8z M98.7,81.5C98.7,81.5,98.6,81.5,98.7,81.5c-2.4,0.1-4.2,1.9-4.1,4.2
			c0.1,2.3,2,4.1,4.2,4c1.1,0,2.1-0.5,2.9-1.3c0.8-0.8,1.2-1.8,1.1-2.9v0c0-1.1-0.5-2.1-1.3-2.9C100.8,81.9,99.7,81.5,98.7,81.5z"/>
	</g>
	<g class="st1">
		<path class="st3" d="M88.4,85.7"/>
	</g>
	<g class="st1">
		<path class="st2" d="M53.5,85.5c-1.7,0-3.1-1.4-3.1-3.1c0-32.4,20.8-34.9,27.2-34.9c4.2,0,10.1,1.3,13.6,4.3
			c1.3,1.1,1.5,3.1,0.3,4.4c-1.1,1.3-3.1,1.5-4.4,0.3c-1.9-1.6-6-2.8-9.5-2.8c-7.8,0-20.9,3.7-20.9,28.7
			C56.6,84.1,55.2,85.5,53.5,85.5z"/>
	</g>
	<g class="st1">
		<path class="st2" d="M55.6,98.1c-1.4,0-2.5-1.1-2.5-2.5c0-8.7,7.4-15.2,17.3-15.3c5.9-0.5,17.2,1.8,18.7,14.2
			c0.2,1.4-0.8,2.6-2.2,2.8c-1.4,0.2-2.6-0.8-2.8-2.2c-1.3-10.8-12.9-9.9-13.4-9.8l-0.2,0c-6.2,0-12.4,3.5-12.4,10.3
			C58.1,96.9,57,98.1,55.6,98.1z"/>
	</g>
	<g class="st1">
		<path class="st2" d="M115.8,122.1c-1.7,0-3.1-1.4-3.1-3.1v-12.1h10.5l-11.3-34c-0.5-1.6,0.3-3.4,2-3.9c1.6-0.5,3.4,0.3,3.9,2
			l14,42.3h-12.9v5.9C118.9,120.7,117.5,122.1,115.8,122.1z"/>
	</g>
	<g class="st1">
		<path class="st2" d="M65.3,123.6c-1.4,0-2.5-1.1-2.5-2.5v-3.6h-9.5l9.9-25.1c0.5-1.3,2-1.9,3.2-1.4c1.3,0.5,1.9,2,1.4,3.2
			l-7.2,18.3h7.2v8.6C67.8,122.4,66.7,123.6,65.3,123.6z"/>
	</g>
	<g class="st1">
		<path class="st2" d="M76.1,123.6c1.4,0,2.5-1.1,2.5-2.5v-3.6h9.5l-9.9-25.1c-0.5-1.3-2-1.9-3.2-1.4c-1.3,0.5-1.9,2-1.4,3.2
			l7.2,18.3h-7.2v8.6C73.6,122.4,74.7,123.6,76.1,123.6z"/>
	</g>
	<g class="st1">
		<path class="st2" d="M93.8,126.1c-1.4,0-2.5-1.1-2.5-2.5v-15.4c0-1.4,1.1-2.5,2.5-2.5s2.5,1.1,2.5,2.5v15.4
			C96.3,125,95.2,126.1,93.8,126.1z"/>
	</g>
	<g class="st1">
		<path class="st2" d="M102.7,126.1c-1.4,0-2.5-1.1-2.5-2.5v-15.4c0-1.4,1.1-2.5,2.5-2.5s2.5,1.1,2.5,2.5v15.4
			C105.1,125,104,126.1,102.7,126.1z"/>
	</g>
	<g class="st1">
		<path class="st2" d="M86.4,105.7c-0.2,0-0.3,0-0.5,0c-1.4-0.3-2.2-1.6-2-2.9c1.3-7.1,7.5-12.2,14.7-12.2c7.1,0,13.3,5,14.7,12
			c0.3,1.4-0.6,2.7-1.9,2.9c-1.4,0.3-2.7-0.6-2.9-1.9c-0.9-4.6-5.1-8-9.8-8c-4.8,0-8.9,3.4-9.8,8.1
			C88.6,104.9,87.6,105.7,86.4,105.7z"/>
	</g>
</g>
<g id="Finances_Icon" class="st0">
	<path class="st4" d="M81.1,37.7c0-0.6-0.5-1.1-1.1-1.1h-4.4c-0.6,0-1.1,0.5-1.1,1.1c0,0.6,0.5,1.1,1.1,1.1H80
		C80.6,38.8,81.1,38.3,81.1,37.7z"/>
	<path class="st4" d="M101.7,55.3h5.4c0.6,0,1.1-0.5,1.1-1.1s-0.5-1.1-1.1-1.1h-5.4c-0.6,0-1.1,0.5-1.1,1.1S101.1,55.3,101.7,55.3z"
		/>
	<path class="st4" d="M96.9,55.3h1.2c0.6,0,1.1-0.5,1.1-1.1S98.7,53,98.1,53h-1.2c-0.6,0-1.1,0.5-1.1,1.1S96.3,55.3,96.9,55.3z"/>
	<path class="st4" d="M119.8,63.3H61.9c-1.3,0-2.3,1-2.3,2.3v30.7c0,1.3,1,2.3,2.3,2.3h8.2c-0.7,0.4-1.2,1-1.2,1.6
		c0,0.1,0,0.1,0,0.2c0,0,0,0,0,0c0,0,0,0,0,0c0,0,0,0,0,0l0,4.6c0,0.3,0.1,0.5,0.2,0.7c0.3,0.4,1.8,1.7,6.9,1.7c0.1,0,0.2,0,0.3,0
		c5.4-0.1,6.9-1.5,7.2-1.9c0.2-0.2,0.2-0.4,0.2-0.7l-0.1-4.6c0,0,0,0,0,0c0-0.1,0-0.2,0-0.2c-0.1-0.6-0.4-1-1-1.4h37.2
		c1.3,0,2.3-1,2.3-2.3V65.6C122.1,64.3,121.1,63.3,119.8,63.3z M75.5,101C75.5,101,75.4,101,75.5,101c-1.8-0.1-3.2-0.3-3.9-0.6
		c0.8-0.3,2.4-0.7,4.7-0.7c2.3,0,3.9,0.3,4.7,0.6c-0.8,0.3-2.4,0.7-4.7,0.7C76,101,75.7,101,75.5,101z M76.3,105.2
		c-3.2,0-4.6-0.5-5.2-0.7l0-1.7c1.2,0.4,2.8,0.6,4.8,0.6c0,0,0.1,0,0.1,0c0.1,0,0.2,0,0.2,0c2.2,0,3.9-0.3,5.1-0.7l0,1.7
		C80.9,104.6,79.5,105.2,76.3,105.2z M64.2,92H73c0.9,0,1.7-0.8,1.7-1.7S74,88.5,73,88.5h-8.8V87H73c0.9,0,1.7-0.8,1.7-1.7
		c0-0.9-0.8-1.7-1.7-1.7h-8.8V67.9H83C82,68.8,81,70,80.1,71.3c-0.5,0.8-0.3,1.9,0.6,2.4c0.8,0.5,1.9,0.3,2.4-0.6
		c1.9-3.1,4.8-4.8,7.8-4.8c5.5,0,10,5.7,10,12.7c0,7-4.5,12.7-10,12.7c-5.5,0-10-5.7-10-12.7c0-1.1,0.1-2.3,0.4-3.4
		c0.2-0.9-0.4-1.8-1.3-2c-0.9-0.2-1.8,0.4-2,1.3c-0.3,1.3-0.4,2.7-0.4,4.1c0,5.4,2.2,10.2,5.6,13.1H64.2V92z M98.6,94
		c3.4-2.9,5.6-7.7,5.6-13.1c0-5.4-2.2-10.2-5.6-13.1h18.9v1.8h-9c-0.9,0-1.7,0.8-1.7,1.7c0,0.9,0.8,1.7,1.7,1.7h9v1.5h-9
		c-0.9,0-1.7,0.8-1.7,1.7c0,0.9,0.8,1.7,1.7,1.7h9v16H98.6z"/>
	<path class="st4" d="M67.4,69.1c-0.9,0-1.7,0.8-1.7,1.7v3.7c0,0.9,0.8,1.7,1.7,1.7c0.9,0,1.7-0.8,1.7-1.7v-3.7
		C69.2,69.8,68.4,69.1,67.4,69.1z"/>
	<path class="st4" d="M114.1,85.6c-0.9,0-1.7,0.8-1.7,1.7v3.7c0,0.9,0.8,1.7,1.7,1.7c0.9,0,1.7-0.8,1.7-1.7v-3.7
		C115.8,86.4,115,85.6,114.1,85.6z"/>
	<path class="st4" d="M92,85c-0.3,0.2-0.9,0.4-1.8,0.4c-0.8,0-1.5-0.1-2.2-0.3c-0.7-0.2-1.3-0.4-1.8-0.7l-0.9,2.5
		c0.3,0.2,0.8,0.4,1.4,0.6c0.6,0.2,1.5,0.4,2.5,0.5v2.5H92v-2.6c0.7-0.1,1.3-0.3,1.8-0.6c0.5-0.3,0.9-0.6,1.2-0.9
		c0.3-0.4,0.5-0.7,0.6-1.2c0.1-0.4,0.2-0.8,0.2-1.3c0-0.6-0.1-1.2-0.3-1.6c-0.2-0.5-0.5-0.9-0.9-1.2c-0.4-0.3-0.9-0.7-1.4-0.9
		c-0.5-0.3-1.1-0.5-1.7-0.7c-0.4-0.1-0.8-0.3-1.1-0.4c-0.3-0.1-0.5-0.2-0.7-0.4c-0.2-0.1-0.3-0.3-0.4-0.4C89,78.1,89,77.9,89,77.6
		c0-0.4,0.1-0.7,0.4-0.9c0.3-0.2,0.8-0.3,1.5-0.3c0.7,0,1.3,0.1,1.9,0.2c0.6,0.1,1.2,0.3,1.6,0.5l0.7-2.6c-0.3-0.1-0.7-0.3-1.3-0.4
		c-0.5-0.1-1.2-0.2-1.9-0.3v-2.2h-2.7v2.3c-0.6,0.1-1.2,0.3-1.6,0.5c-0.5,0.2-0.8,0.6-1.1,0.9c-0.3,0.4-0.5,0.7-0.6,1.2
		c-0.1,0.4-0.2,0.9-0.2,1.4c0,0.6,0.1,1.1,0.3,1.6c0.2,0.4,0.5,0.8,0.9,1.1c0.4,0.3,0.8,0.6,1.2,0.8c0.4,0.2,0.9,0.4,1.4,0.6
		c0.5,0.2,0.9,0.3,1.3,0.5c0.4,0.1,0.7,0.3,0.9,0.5c0.2,0.2,0.4,0.3,0.6,0.5c0.1,0.2,0.2,0.4,0.2,0.7C92.5,84.5,92.3,84.8,92,85z"/>
	<path class="st4" d="M113.5,38.5v-5.7c0-0.9-0.8-1.7-1.7-1.7H69.9c-0.9,0-1.7,0.8-1.7,1.7v5.7C54.5,46.6,46,61.3,46,77.3
		c0,24.7,20.1,44.9,44.9,44.9s44.9-20.1,44.9-44.9C135.7,61.4,127.2,46.6,113.5,38.5z M71.6,34.6h12.3c-0.3,0.4-0.4,0.9-0.1,1.3
		c0.3,0.5,1,0.7,1.6,0.4c1.7-1,3.7-1.6,5.8-1.6c5.1,0,9.4,3.4,10.8,8.1H85c-0.6,0-1.1,0.5-1.1,1.1c0,0.6,0.5,1.1,1.1,1.1h17.4
		c0,0.3,0,0.6,0,0.8c0,0.9-0.1,1.7-0.3,2.5H86.2c-0.6,0-1.1,0.5-1.1,1.1s0.5,1.1,1.1,1.1H103c0.5,0,0.9-0.3,1.1-0.8
		c0.4-1.3,0.6-2.6,0.6-4c0-0.7-0.1-1.5-0.2-2.2c0,0,0,0,0-0.1c-0.6-3.8-2.9-7.1-6-9.1h11.6V57H89.4c-5.4-0.8-9.5-5.5-9.5-11.1
		c0-0.9,0.1-1.9,0.3-2.8c0.2-0.6-0.2-1.2-0.8-1.4c-0.6-0.2-1.2,0.2-1.4,0.8c-0.3,1.1-0.4,2.2-0.4,3.3c0,4.6,2.3,8.6,5.8,11.1H71.6
		V34.6z M77.2,111.9c0.8-0.3,2.4-0.7,4.7-0.7c2.2,0,3.8,0.3,4.7,0.7c-0.8,0.3-2.4,0.7-4.7,0.7C79.6,112.6,78,112.3,77.2,111.9z
		 M76.7,114.3c1,0.4,2.5,0.6,4.6,0.6c0.2,0,0.4,0,0.5,0c0.1,0,0.3,0,0.5,0c2.1,0,3.6-0.3,4.6-0.6v1.7c-0.6,0.3-2,0.8-5.1,0.8
		c-3.2,0-4.6-0.5-5.1-0.8V114.3z M105.7,103.3c0.8-0.3,2.4-0.7,4.7-0.7c2.2,0,3.8,0.3,4.7,0.7c-0.8,0.3-2.4,0.7-4.7,0.7
		C108.1,103.9,106.5,103.6,105.7,103.3z M105.2,105.6c1,0.4,2.5,0.6,4.6,0.6c0.2,0,0.4,0,0.5,0c0.1,0,0.3,0,0.5,0
		c2.1,0,3.6-0.3,4.6-0.6v1.7c-0.6,0.3-2,0.8-5.1,0.8c-3.2,0-4.6-0.5-5.1-0.8V105.6z M117.8,107.2v-3.9c0-2.8-6.2-2.9-7.4-2.9
		c-1.2,0-7.4,0.1-7.4,2.9v4.6c0,0.3,0.1,0.5,0.2,0.7c0.3,0.4,1.8,1.8,7.2,1.8c1.5,0,2.8-0.1,3.7-0.3c-6.6,4.7-14.6,7.4-23.2,7.4
		c-0.7,0-1.4,0-2-0.1c0.1-0.1,0.1-0.2,0.2-0.2c0.2-0.2,0.2-0.4,0.2-0.7v-4.6c0-2.8-6.2-2.9-7.4-2.9s-7.4,0.1-7.4,2.9v2.1
		c-14-6.3-23.8-20.4-23.8-36.7c0-13.4,6.7-25.8,17.6-33.3v14.8c0,0.9,0.8,1.7,1.7,1.7h41.9c0.9,0,1.7-0.8,1.7-1.7V43.9
		c10.9,7.5,17.6,19.9,17.6,33.3C131.1,89.1,126,99.8,117.8,107.2z"/>
</g>
<g id="Legacy_Icon">
	<path class="st5" d="M137.1,120.6l-9.5-32.4c4.3-3.1,7.7-8.2,7.7-16.2c0-5.1-1.7-9.4-5.1-12.8c-2.2-2.1-4.8-3.6-7.4-4.7
		c2.6-2.5,4.2-6,4.2-9.9c0-7.6-6.2-13.8-13.8-13.8c-7.6,0-13.8,6.2-13.8,13.8c0,1.9,0.4,3.6,1.1,5.3c-4.7-2-9.5-3.2-14-3.9
		c2.2-2.7,3.5-6.2,3.5-10c0-8.8-7.1-15.9-15.9-15.9S58.2,27.2,58.2,36c0,4.2,1.6,8,4.3,10.9c-8.9,2.6-17.7,8.4-17.7,19.5
		c0,5.6,1.8,10.1,5.4,13.4c1.9,1.7,4.1,2.9,6.3,3.8v46.2c0,1.9,1.5,3.4,3.4,3.4s3.4-1.5,3.4-3.4V85.1c1.4,0.1,2.6,0.2,3.5,0.2
		c0.8,0,1.4,0,1.6,0v36c0,1.9,1.5,3.4,3.4,3.4H113c1.9,0,3.4-1.5,3.4-3.4V92.4c1.5-0.2,3.2-0.5,4.9-1.1l7.9,26.8h-6.6
		c-1.9,0-3.4,1.5-3.4,3.4v9.4c0,1.9,1.5,3.4,3.4,3.4c1.9,0,3.4-1.5,3.4-3.4v-6h7.7c1.1,0,2.1-0.5,2.8-1.4
		C137.2,122.7,137.4,121.6,137.1,120.6z M113.1,37.6c3.8,0,6.9,3.1,6.9,6.9c0,3.8-3.1,6.9-6.9,6.9c-3.8,0-6.9-3.1-6.9-6.9
		C106.2,40.8,109.3,37.6,113.1,37.6z M74.1,27c5,0,9,4,9,9c0,5-4,9-9,9c-5,0-9-4-9-9C65.1,31,69.1,27,74.1,27z M68.5,66.4v11.9
		c-0.1,0-0.3,0-0.4,0c-0.1,0-3.6,0.3-7.3-0.7c0,0-0.1,0-0.1,0c-2-0.5-4.1-1.4-5.8-3c-2.1-2-3.2-4.7-3.2-8.3
		c0-13.6,22.3-14.5,22.4-14.5c5.8,0,13.8,0.7,21.6,3.6c-3.3,1.6-6.8,3.9-10.1,7.3c-0.1,0.1-0.1,0.2-0.2,0.2H71.9
		C70,63,68.5,64.5,68.5,66.4z M109.5,117.8H75.3V69.9h34.2V117.8z M113,63H96.2c6.7-4.1,13.2-4.2,13.6-4.2c0,0,0,0,0,0
		c0.2,0,10.3,0.1,15.5,5.2c2.1,2,3.1,4.6,3.1,7.9c0,6.2-2.9,9.6-6.1,11.5c-0.3,0.1-0.6,0.3-0.8,0.4c-1.9,0.9-3.7,1.4-5.1,1.6v-19
		C116.4,64.5,114.9,63,113,63z"/>
	<path class="st5" d="M81,77.7h14.8c1.1,0,2.1-0.9,2.1-2.1c0-1.1-0.9-2.1-2.1-2.1H81c-1.1,0-2.1,0.9-2.1,2.1
		C78.9,76.7,79.8,77.7,81,77.7z"/>
	<path class="st5" d="M81,89.2h23.2c1.1,0,2.1-0.9,2.1-2.1c0-1.1-0.9-2.1-2.1-2.1H81c-1.1,0-2.1,0.9-2.1,2.1
		C78.9,88.3,79.8,89.2,81,89.2z"/>
	<path class="st5" d="M81,95.9h23.2c1.1,0,2.1-0.9,2.1-2.1s-0.9-2.1-2.1-2.1H81c-1.1,0-2.1,0.9-2.1,2.1S79.8,95.9,81,95.9z"/>
	<path class="st5" d="M104.1,111.3h-10c-1.1,0-2.1,0.9-2.1,2.1c0,1.1,0.9,2.1,2.1,2.1h10c1.1,0,2.1-0.9,2.1-2.1
		C106.2,112.2,105.3,111.3,104.1,111.3z"/>
</g>
</svg>
